HIERARCHY
ROOT Hips
{
	OFFSET 0.000000 0.000000 0.000000
	CHANNELS 6 Xposition Yposition Zposition Zrotation Xrotation Yrotation
	JOINT Spine
	{
		OFFSET 0.000000 7.322665 -0.000001
		CHANNELS 3 Zrotation Xrotation Yrotation
		JOINT Spine1
		{
			OFFSET 0.000000 17.707638 -0.000002
			CHANNELS 3 Zrotation Xrotation Yrotation
			JOINT Neck
			{
				OFFSET 0.000000 19.493652 -0.000002
				CHANNELS 3 Zrotation Xrotation Yrotation
				JOINT Head
				{
					OFFSET 0.000000 13.841621 1.786014
					CHANNELS 3 Zrotation Xrotation Yrotation
					End Site
					{
						OFFSET 0.000000 17.860161 -0.000002
					}
				}
			}
			JOINT LeftShoulder
			{
				OFFSET 3.552432 16.070168 -0.180037
				CHANNELS 3 Zrotation Xrotation Yrotation
				JOINT LeftArm
				{
					OFFSET 10.355261 0.000000 0.000000
					CHANNELS 3 Zrotation Xrotation Yrotation
					JOINT LeftForeArm
					{
						OFFSET 27.312889 0.000000 0.000000
						CHANNELS 3 Zrotation Xrotation Yrotation
						JOINT LeftHand
						{
							OFFSET 21.407238 0.000000 0.000000
							CHANNELS 3 Zrotation Xrotation Yrotation
							End Site
							{
								OFFSET 13.395115 0.000000 0.000000
							}
						}
					}
				}
			}
			JOINT RightShoulder
			{
				OFFSET -3.589735 16.070168 -0.180037
				CHANNELS 3 Zrotation Xrotation Yrotation
				JOINT RightArm
				{
					OFFSET -10.355261 0.000000 0.000000
					CHANNELS 3 Zrotation Xrotation Yrotation
					JOINT RightForeArm
					{
						OFFSET -27.312885 0.000000 0.000000
						CHANNELS 3 Zrotation Xrotation Yrotation
						JOINT RightHand
						{
							OFFSET -21.407238 0.000000 0.000000
							CHANNELS 3 Zrotation Xrotation Yrotation
							End Site
							{
								OFFSET -13.395123 0.000000 0.000000
							}
						}
					}
				}
			}
		}
	}
	JOINT LeftUpLeg
	{
		OFFSET 8.930079 0.000000 0.000000
		CHANNELS 3 Zrotation Xrotation Yrotation
		JOINT LeftLeg
		{
			OFFSET 0.000000 -43.123249 0.000005
			CHANNELS 3 Zrotation Xrotation Yrotation
			JOINT LeftFoot
			{
				OFFSET 0.000000 -33.635326 0.000004
				CHANNELS 3 Zrotation Xrotation Yrotation
				JOINT LeftToeBase
				{
					OFFSET 0.000000 -5.804550 13.395120
					CHANNELS 3 Zrotation Xrotation Yrotation
					End Site
					{
						OFFSET 0.000000 0.000000 3.572030
					}
				}
			}
		}
	}
	JOINT RightUpLeg
	{
		OFFSET -8.930079 0.000000 0.000000
		CHANNELS 3 Zrotation Xrotation Yrotation
		JOINT RightLeg
		{
			OFFSET 0.000000 -43.123249 0.000005
			CHANNELS 3 Zrotation Xrotation Yrotation
			JOINT RightFoot
			{
				OFFSET 0.000000 -33.635326 0.000004
				CHANNELS 3 Zrotation Xrotation Yrotation
				JOINT RightToeBase
				{
					OFFSET 0.000000 -5.804550 13.395120
					CHANNELS 3 Zrotation Xrotation Yrotation
					End Site
					{
						OFFSET 0.000000 0.000000 3.572030
					}
				}
			}
		}
	}
}
MOTION
Frames: 13
Frame Time: 0.033333
0.000000 -0.000000 0.000000 -9.062453 -22.149754 -6.055729 12.961641 27.351656 -10.191352 -6.502105 -7.251751 4.696079 9.149371 17.392286 -10.103334 -0.618375 0.591875 -0.032111 -8.257031 3.802507 11.158542 -58.226523 19.650719 -12.371620 -17.212454 2.294476 -97.363670 -28.141009 33.335223 34.109070 19.852416 2.305529 -19.299210 54.230708 25.062814 11.711477 28.666581 -6.932514 77.549169 69.947523 40.981354 -46.101540 9.958540 20.452006 7.657813 -0.000066 21.723143 0.000009 -7.610350 11.099745 20.864488 -0.000012 -25.443085 -0.000024 3.527249 23.950280 -21.917619 -0.000008 -0.805839 -0.000005 4.169010 21.570598 -8.458727 0.000001 -27.911162 0.000008
0.613852 0.062825 -0.127965 -8.270020 -21.634469 -5.593537 12.009377 26.512875 -9.795603 -6.285737 -7.021030 4.729668 9.142397 16.927577 -10.643205 -0.592816 0.733061 -0.056582 -8.416848 3.605004 11.124633 -58.235477 19.772834 -12.617659 -16.972337 2.284401 -97.441179 -28.300407 33.295782 33.945982 19.649589 2.061089 -19.357169 53.070338 26.625706 12.524283 28.533817 -6.592028 78.078064 69.911077 41.002561 -47.381586 8.624448 20.744282 8.953858 -0.000050 19.576500 0.000007 -6.516537 11.740549 20.770008 1.105720 -25.257155 0.471829 2.230901 22.911350 -21.362508 0.000002 -0.154655 0.000004 4.590629 21.591961 -8.897045 0.000003 -27.713621 -0.000025
1.253429 0.139057 -0.333164 -7.349070 -20.942468 -5.219403 10.754782 25.566108 -9.187497 -5.837178 -6.675826 4.668305 8.749355 16.363789 -10.824834 -0.502799 0.779048 -0.088572 -8.612961 3.355020 11.117910 -58.365230 19.672225 -12.502452 -17.199707 2.361980 -97.583801 -28.351043 33.099619 33.830770 18.926995 1.898334 -19.119646 52.458674 27.913107 13.220031 28.293133 -6.310448 78.459442 67.187977 41.091839 -47.163378 7.430907 20.731011 10.715956 -0.000034 17.807748 0.000009 -6.217465 12.383083 18.978099 -0.000015 -25.224681 -0.000028 0.684005 21.453646 -20.939611 0.000001 0.890417 0.000004 4.808988 21.664363 -9.047745 0.000005 -27.667314 0.000011
1.935865 0.179778 -0.570873 -6.426049 -20.191719 -4.835503 9.529922 24.607683 -8.590937 -5.288703 -6.204993 4.639053 8.104988 15.428984 -10.818615 -0.461951 0.798127 -0.105621 -8.993275 2.934437 11.227959 -58.306791 19.581297 -12.294751 -17.628857 2.482685 -97.761160 -28.324439 32.929097 33.710993 17.936995 1.658369 -18.901953 52.248328 28.783476 13.678215 27.074078 -5.682106 79.037078 64.201934 40.337673 -46.881992 6.166515 20.518095 12.407368 -0.000026 16.259226 0.000006 -5.807682 12.972689 17.150330 -0.000004 -25.214497 -0.000011 -0.897172 19.867313 -20.633752 0.000003 1.991681 0.000008 5.148891 21.604648 -9.112797 0.000003 -27.540638 0.000004
2.619827 0.186882 -0.801227 -5.731044 -19.676199 -4.339451 8.667798 23.963966 -8.173503 -4.785661 -5.872429 4.622216 7.449533 14.508155 -10.906163 -0.459205 0.762610 -0.113610 -9.548758 2.622042 11.280988 -58.010518 19.423374 -12.215733 -17.922162 2.522192 -97.749638 -28.247347 32.879356 33.321262 17.034499 1.516445 -18.790270 51.863815 29.422607 14.143023 25.641640 -5.047974 79.613655 63.527262 40.363321 -47.463019 4.959270 20.517367 13.258248 -0.000005 14.671310 0.000005 -5.320850 13.357830 16.421446 0.000002 -25.223802 0.000005 -2.177560 18.628533 -20.313900 -0.000001 2.969113 0.000001 5.533461 21.621847 -9.435744 0.000005 -27.486209 0.000014
3.256227 0.164414 -1.000909 -5.257142 -19.377679 -3.752056 8.174196 23.585074 -7.891452 -4.495579 -5.702197 4.594255 6.986460 13.714627 -11.113071 -0.486003 0.670805 -0.115896 -9.995988 2.447280 11.289394 -57.757480 19.257029 -12.153061 -17.782160 2.455946 -97.612125 -28.283841 32.770630 33.271047 16.579232 1.391254 -18.919885 50.992850 29.906858 14.835161 25.466663 -4.732735 80.173177 62.727310 40.269918 -47.785202 3.804524 20.787057 13.108950 -0.000024 12.938002 0.000007 -4.607408 13.545822 16.945512 -0.000009 -25.079884 -0.000027 -3.128990 17.749729 -20.059291 0.000004 3.758595 -0.000007 6.215766 21.468019 -9.898911 0.000009 -27.267701 0.000018
3.821520 0.107066 -1.213293 -5.002886 -19.128245 -3.160855 7.955278 23.288392 -7.646997 -4.418379 -5.599524 4.504761 6.750985 13.053464 -11.252738 -0.478407 0.549623 -0.128717 -10.204503 2.320382 11.340953 -57.692928 19.170562 -12.068895 -17.796700 2.329710 -97.216753 -28.329550 32.670277 33.563386 16.482927 1.322496 -18.830203 50.276497 29.805330 15.115554 25.624163 -4.485754 80.740144 60.904408 39.590129 -47.501654 2.827057 21.164495 12.514769 -0.000002 11.074333 0.000005 -3.515649 13.751457 18.033938 -0.000005 -24.924554 -0.000013 -3.810156 16.967494 -19.746832 0.000008 4.528416 -0.000004 6.612100 21.565457 -10.633951 0.000014 -27.414158 0.000024
4.329410 0.051328 -1.398646 -4.809120 -19.056709 -2.700142 7.699298 23.149239 -7.312347 -4.428445 -5.518833 4.310066 6.718036 12.548212 -11.293242 -0.462662 0.494018 -0.139137 -10.194833 2.215599 11.492270 -57.843021 19.212497 -11.682444 -17.669848 2.182647 -96.817727 -28.051957 32.542242 33.861336 16.594161 1.245450 -18.694448 49.766657 29.544017 15.253988 25.514228 -4.446948 80.773373 61.640736 39.653944 -48.202735 2.029727 21.748079 12.465309 -0.000010 9.296095 0.000002 -2.501398 14.106607 18.393925 0.000000 -24.787720 -0.000010 -4.419821 16.395596 -19.381290 0.000005 5.261438 -0.000010 6.986218 21.657954 -11.261589 -0.000000 -27.510718 -0.000003
4.787837 0.031093 -1.601799 -4.514450 -18.996484 -2.338928 7.264663 23.038537 -7.065698 -4.531548 -5.485498 4.213543 6.896557 12.275835 -11.219969 -0.483948 0.498294 -0.137099 -10.140782 2.141800 11.606050 -57.943596 19.049138 -11.081390 -18.118224 2.158757 -96.566840 -28.326301 32.329625 34.909397 16.828164 1.203622 -18.524101 49.612821 29.171649 15.392519 25.576806 -4.704116 80.276702 63.097008 40.191248 -48.722598 1.322615 22.232382 13.145703 -0.000004 7.772735 0.000006 -1.959927 14.706550 17.625914 0.000008 -24.838109 0.000016 -5.104524 15.787371 -18.948108 -0.000003 6.022011 0.000002 7.753286 21.386270 -11.750767 0.000003 -27.116314 -0.000014
5.227733 0.014952 -1.847615 -4.093002 -18.753809 -2.082369 6.523876 22.772045 -6.735328 -4.462215 -5.373449 4.142929 6.947493 11.961246 -11.001019 -0.439246 0.581310 -0.146683 -10.136165 2.009171 11.772209 -57.945788 18.803801 -10.377482 -18.667921 2.168263 -96.391147 -28.332130 32.206668 35.140794 16.806538 1.117956 -18.363486 50.051708 28.904763 15.295486 25.713967 -4.983060 79.774185 63.412870 40.287273 -48.914212 0.521195 22.334092 14.035857 -0.000022 6.612243 -0.000003 -1.548672 15.169355 16.695928 -0.000005 -24.825868 -0.000010 -5.938151 14.943767 -18.278951 0.000007 6.794905 0.000002 8.161863 21.551685 -12.480777 0.000012 -27.261950 0.000011
5.647584 -0.004280 -2.117201 -3.782531 -18.512922 -1.899761 5.776185 22.609765 -6.371247 -4.202217 -5.326421 4.061499 6.757888 11.595425 -10.771712 -0.421187 0.684980 -0.149401 -10.200354 1.983600 11.940549 -57.820782 18.499805 -9.678397 -19.356300 2.204088 -96.247016 -28.011772 32.087515 34.755561 16.525757 1.140077 -18.196703 50.903853 28.661789 14.850809 24.945688 -4.828314 79.743073 64.559078 40.896649 -49.449262 -0.211627 22.333964 14.686266 -0.000003 5.602849 0.000002 -1.088931 15.640285 16.141250 -0.000011 -24.853827 -0.000018 -6.666489 13.986643 -17.823785 0.000008 7.736023 -0.000005 8.664322 21.345709 -12.816866 0.000014 -26.968355 0.000005
6.051241 -0.054524 -2.402014 -3.452413 -18.322003 -1.774400 5.036266 22.524468 -6.032535 -3.981759 -5.235022 4.005300 6.418231 11.131271 -10.491317 -0.431231 0.766820 -0.140364 -10.330187 1.902717 12.048159 -57.605877 18.058993 -9.007207 -19.819399 2.207074 -96.098152 -28.092595 31.923829 34.903636 16.182941 1.135071 -18.063984 51.855834 28.514197 14.235601 24.856252 -4.592597 80.193149 66.405783 41.885889 -49.836704 -1.020569 22.388228 15.185628 -0.000005 4.547095 -0.000000 -0.586751 16.114530 15.879669 -0.000006 -24.947107 -0.000016 -7.469339 12.951225 -17.347122 -0.000005 8.931892 -0.000005 8.834593 21.208661 -13.166968 0.000004 -26.931856 -0.000004
6.446939 -0.127164 -2.690340 -3.059961 -18.266089 -1.733102 4.265506 22.685780 -5.718560 -3.809411 -5.250750 3.943577 5.969672 10.757902 -10.173705 -0.447178 0.693926 -0.132001 -10.575730 1.884620 12.188599 -57.227174 17.490089 -8.470029 -19.993325 2.157900 -95.907993 -27.997760 31.991349 34.592193 15.921842 1.204752 -18.027622 52.476996 28.564357 13.922071 26.197148 -4.637227 80.668072 66.254228 42.241407 -48.957003 -1.954553 22.684194 15.936693 -0.000006 3.273196 -0.000001 -0.080468 16.670627 15.406653 -0.000008 -25.053241 -0.000019 -8.386414 11.891947 -16.758718 0.000021 10.375292 -0.000014 9.144221 20.875502 -13.477173 0.000006 -26.849839 0.000012
